{
    "accessors" : [
        {
            "bufferView" : 0,
            "componentType" : 5123,
            "count" : 135000,
            "max" : [
                25306
            ],
            "min" : [
                0
            ],
            "type" : "SCALAR"
        },
        {
            "bufferView" : 1,
            "componentType" : 5126,
            "count" : 25307,
            "max" : [
                0.2530862092971802,
                0.30851075053215027,
                0.4556451737880707
            ],
            "min" : [
                -0.25144678354263306,
                -0.4201660454273224,
                -0.39653781056404114
            ],
            "type" : "VEC3"
        },
        {
            "bufferView" : 2,
            "componentType" : 5126,
            "count" : 25307,
            "max" : [
                0.99993896484375,
                0.999755859375,
                0.999969482421875
            ],
            "min" : [
                -0.999969482421875,
                -0.9996337890625,
                -0.999908447265625
            ],
            "type" : "VEC3"
        },
        {
            "bufferView" : 3,
            "componentType" : 5126,
            "count" : 25307,
            "max" : [
                0.999997615814209,
                0.9999649524688721,
                0.9999983310699463,
                1.0
            ],
            "min" : [
                -0.9990224838256836,
                -0.9998896718025208,
                -0.9999194145202637,
                -1.0
            ],
            "type" : "VEC4"
        },
        {
            "bufferView" : 4,
            "componentType" : 5126,
            "count" : 25307,
            "max" : [
                0.8426100015640259,
                1.0000660000005155
            ],
            "min" : [
                4.5000000682193786e-05,
                -4.00543212890625e-05
            ],
            "type" : "VEC2"
        }
    ],
    "asset" : {
        "generator" : "Khronos Blender glTF 2.0 exporter",
        "version" : "2.0"
    },
    "bufferViews" : [
        {
            "buffer" : 0,
            "byteLength" : 270000,
            "byteOffset" : 0,
            "target" : 34963
        },
        {
            "buffer" : 0,
            "byteLength" : 303684,
            "byteOffset" : 270000,
            "target" : 34962
        },
        {
            "buffer" : 0,
            "byteLength" : 303684,
            "byteOffset" : 573684,
            "target" : 34962
        },
        {
            "buffer" : 0,
            "byteLength" : 404912,
            "byteOffset" : 877368,
            "target" : 34962
        },
        {
            "buffer" : 0,
            "byteLength" : 202456,
            "byteOffset" : 1282280,
            "target" : 34962
        }
    ],
    "buffers" : [
        {
            "byteLength" : 1484736,
            "uri" : "stone-pipe.bin"
        }
    ],
    "images" : [
        {
            "name" : "stone-pipe",
            "uri" : "stone-pipe.jpg"
        }
    ],
    "materials" : [
        {
            "name" : "material_0",
            "pbrMetallicRoughness" : {
                "baseColorTexture" : {
                    "index" : 0
                },
                "metallicFactor" : 0.0
            }
        }
    ],
    "meshes" : [
        {
            "name" : "stone-pipe",
            "primitives" : [
                {
                    "attributes" : {
                        "NORMAL" : 2,
                        "POSITION" : 1,
                        "TANGENT" : 3,
                        "TEXCOORD_0" : 4
                    },
                    "indices" : 0,
                    "material" : 0
                }
            ]
        }
    ],
    "nodes" : [
        {
            "name" : "Camera",
            "rotation" : [
                0.483536034822464,
                0.33687159419059753,
                -0.20870360732078552,
                0.7804827094078064
            ],
            "translation" : [
                7.481131553649902,
                5.34366512298584,
                6.5076398849487305
            ]
        },
        {
            "name" : "Lamp",
            "rotation" : [
                0.16907575726509094,
                0.7558802962303162,
                -0.27217137813568115,
                0.570947527885437
            ],
            "scale" : [
                1.0,
                1.0,
                0.9999999403953552
            ],
            "translation" : [
                4.076245307922363,
                5.903861999511719,
                -1.0054539442062378
            ]
        },
        {
            "mesh" : 0,
            "name" : "stone-pipe",
            "rotation" : [
                -0.0023931306786835194,
                -0.45053625106811523,
                -0.8927541375160217,
                -0.0012077477294951677
            ],
            "scale" : [
                1.4114270210266113,
                1.4114270210266113,
                1.4114270210266113
            ],
            "translation" : [
                0.013507021591067314,
                0.024637244641780853,
                0.03241606056690216
            ]
        }
    ],
    "samplers" : [
        {}
    ],
    "scene" : 0,
    "scenes" : [
        {
            "name" : "Scene",
            "nodes" : [
                2,
                1,
                0
            ]
        }
    ],
    "textures" : [
        {
            "sampler" : 0,
            "source" : 0
        }
    ]
}
